<svg xmlns="http://www.w3.org/2000/svg" width="96" height="96" viewBox="0 0 96 96">
  <rect width="96" height="96" rx="20" fill="#22c55e"/>
  <path d="M48 20c-15.464 0-28 12.536-28 28s12.536 28 28 28 28-12.536 28-28-12.536-28-28-28zm0 50c-12.131 0-22-9.869-22-22s9.869-22 22-22 22 9.869 22 22-9.869 22-22 22zm-4-34h8v4h-8v-4zm0 8h8v20h-8v-20z" fill="white" transform="rotate(180 48 48)"/>
  <circle cx="48" cy="48" r="16" fill="none" stroke="white" stroke-width="3"/>
  <path d="M48 36v24M36 48h24" stroke="white" stroke-width="4" stroke-linecap="round"/>
</svg>
